<mxfile host="65bd71144e">
    <diagram id="9w6UU6o1yCBqQvIyu56X" name="Page-1">
        <mxGraphModel dx="845" dy="962" grid="1" gridSize="10" guides="1" tooltips="1" connect="1" arrows="1" fold="1" page="1" pageScale="1" pageWidth="850" pageHeight="1100" math="0" shadow="0">
            <root>
                <mxCell id="0"/>
                <mxCell id="1" parent="0"/>
                <mxCell id="2" value="Chatbot" style="swimlane;childLayout=stackLayout;horizontal=1;startSize=30;horizontalStack=0;rounded=1;fontSize=14;fontStyle=0;strokeWidth=2;resizeParent=0;resizeLast=1;shadow=0;dashed=0;align=center;" parent="1" vertex="1">
                    <mxGeometry x="119" y="296" width="160" height="154" as="geometry"/>
                </mxCell>
                <mxCell id="3" value="+ _id : string&#10;+ name : string&#10;+ creator_id : string&#10;+ slots: Object&#10;+ is_active: boolean&#10;+ is_private: boolean&#10;+ configs: Object" style="align=left;strokeColor=none;fillColor=none;spacingLeft=4;fontSize=12;verticalAlign=top;resizable=0;rotatable=0;part=1;" parent="2" vertex="1">
                    <mxGeometry y="30" width="160" height="124" as="geometry"/>
                </mxCell>
                <mxCell id="4" value="TrainingItem" style="swimlane;childLayout=stackLayout;horizontal=1;startSize=30;horizontalStack=0;rounded=1;fontSize=14;fontStyle=0;strokeWidth=2;resizeParent=0;resizeLast=1;shadow=0;dashed=0;align=center;" parent="1" vertex="1">
                    <mxGeometry x="360" y="160" width="160" height="120" as="geometry">
                        <mxRectangle x="360" y="280" width="70" height="30" as="alternateBounds"/>
                    </mxGeometry>
                </mxCell>
                <mxCell id="5" value="+ _id : string&#10;+ chatbot_id: string&#10;+ name : string&#10;+ type : string&#10;+ examples : array" style="align=left;strokeColor=none;fillColor=none;spacingLeft=4;fontSize=12;verticalAlign=top;resizable=0;rotatable=0;part=1;" parent="4" vertex="1">
                    <mxGeometry y="30" width="160" height="90" as="geometry"/>
                </mxCell>
                <mxCell id="7" value="Action" style="swimlane;childLayout=stackLayout;horizontal=1;startSize=30;horizontalStack=0;rounded=1;fontSize=14;fontStyle=0;strokeWidth=2;resizeParent=0;resizeLast=1;shadow=0;dashed=0;align=center;" parent="1" vertex="1">
                    <mxGeometry x="950" y="160" width="160" height="120" as="geometry"/>
                </mxCell>
                <mxCell id="8" value="+ _id : string&#10;+ name : string&#10;+ inputs : Array[variable]&#10;+ outputs : Array[variable]" style="align=left;strokeColor=none;fillColor=none;spacingLeft=4;fontSize=12;verticalAlign=top;resizable=0;rotatable=0;part=1;" parent="7" vertex="1">
                    <mxGeometry y="30" width="160" height="90" as="geometry"/>
                </mxCell>
                <mxCell id="9" value="StoredItem" style="swimlane;childLayout=stackLayout;horizontal=1;startSize=30;horizontalStack=0;rounded=1;fontSize=14;fontStyle=0;strokeWidth=2;resizeParent=0;resizeLast=1;shadow=0;dashed=0;align=center;" parent="1" vertex="1">
                    <mxGeometry x="660" y="400" width="160" height="120" as="geometry"/>
                </mxCell>
                <mxCell id="10" value="+ _id : string&#10;+ model_id : string&#10;+ data: Object" style="align=left;strokeColor=none;fillColor=none;spacingLeft=4;fontSize=12;verticalAlign=top;resizable=0;rotatable=0;part=1;" parent="9" vertex="1">
                    <mxGeometry y="30" width="160" height="90" as="geometry"/>
                </mxCell>
                <mxCell id="11" value="Model" style="swimlane;childLayout=stackLayout;horizontal=1;startSize=30;horizontalStack=0;rounded=1;fontSize=14;fontStyle=0;strokeWidth=2;resizeParent=0;resizeLast=1;shadow=0;dashed=0;align=center;" parent="1" vertex="1">
                    <mxGeometry x="360" y="400" width="160" height="120" as="geometry"/>
                </mxCell>
                <mxCell id="12" value="+ _id : string&#10;+ chatbot_id: string&#10;+ name : string&#10;+ schema : Object" style="align=left;strokeColor=none;fillColor=none;spacingLeft=4;fontSize=12;verticalAlign=top;resizable=0;rotatable=0;part=1;" parent="11" vertex="1">
                    <mxGeometry y="30" width="160" height="90" as="geometry"/>
                </mxCell>
                <mxCell id="28" value="" style="edgeStyle=entityRelationEdgeStyle;fontSize=12;html=1;endArrow=ERoneToMany;startArrow=ERmandOne;fontColor=#CCCCFF;entryX=-0.003;entryY=0.32;entryDx=0;entryDy=0;entryPerimeter=0;exitX=1.006;exitY=0.16;exitDx=0;exitDy=0;exitPerimeter=0;" parent="1" source="3" edge="1">
                    <mxGeometry width="100" height="100" relative="1" as="geometry">
                        <mxPoint x="210" y="579.5" as="sourcePoint"/>
                        <mxPoint x="359.52" y="210.79999999999995" as="targetPoint"/>
                    </mxGeometry>
                </mxCell>
                <mxCell id="29" value="" style="edgeStyle=entityRelationEdgeStyle;fontSize=12;html=1;endArrow=ERoneToMany;startArrow=ERmandOne;fontColor=#CCCCFF;exitX=1.002;exitY=0.144;exitDx=0;exitDy=0;exitPerimeter=0;entryX=0.007;entryY=0.144;entryDx=0;entryDy=0;entryPerimeter=0;" parent="1" source="12" target="10" edge="1">
                    <mxGeometry width="100" height="100" relative="1" as="geometry">
                        <mxPoint x="800" y="370" as="sourcePoint"/>
                        <mxPoint x="900" y="270" as="targetPoint"/>
                    </mxGeometry>
                </mxCell>
                <mxCell id="33" value="" style="edgeStyle=entityRelationEdgeStyle;fontSize=12;html=1;endArrow=ERoneToMany;startArrow=ERmandOne;fontColor=#CCCCFF;exitX=1;exitY=0.25;exitDx=0;exitDy=0;entryX=0;entryY=0.25;entryDx=0;entryDy=0;" parent="1" source="3" edge="1">
                    <mxGeometry width="100" height="100" relative="1" as="geometry">
                        <mxPoint x="210.31999999999994" y="595.3399999999999" as="sourcePoint"/>
                        <mxPoint x="360" y="444.5" as="targetPoint"/>
                    </mxGeometry>
                </mxCell>
                <mxCell id="35" value="CalledAction" style="swimlane;childLayout=stackLayout;horizontal=1;startSize=30;horizontalStack=0;rounded=1;fontSize=14;fontStyle=0;strokeWidth=2;resizeParent=0;resizeLast=1;shadow=0;dashed=0;align=center;" parent="1" vertex="1">
                    <mxGeometry x="660" y="156" width="160" height="140" as="geometry"/>
                </mxCell>
                <mxCell id="36" value="+ _id : string&#10;+ index : int&#10;+ intent_id : string&#10;+ action_id : string&#10;+ inputs : [String]&#10;+ outputMapNames : Object" style="align=left;strokeColor=none;fillColor=none;spacingLeft=4;fontSize=12;verticalAlign=top;resizable=0;rotatable=0;part=1;" parent="35" vertex="1">
                    <mxGeometry y="30" width="160" height="110" as="geometry"/>
                </mxCell>
                <mxCell id="37" value="" style="edgeStyle=entityRelationEdgeStyle;fontSize=12;html=1;endArrow=ERoneToMany;startArrow=ERmandOne;fontColor=#CCCCFF;exitX=1;exitY=0.25;exitDx=0;exitDy=0;entryX=0;entryY=0.25;entryDx=0;entryDy=0;" parent="1" source="5" target="36" edge="1">
                    <mxGeometry width="100" height="100" relative="1" as="geometry">
                        <mxPoint x="539.9999999999999" y="319.9999999999998" as="sourcePoint"/>
                        <mxPoint x="640.8000000000001" y="319.9999999999998" as="targetPoint"/>
                    </mxGeometry>
                </mxCell>
                <mxCell id="38" value="" style="edgeStyle=entityRelationEdgeStyle;fontSize=12;html=1;endArrow=ERoneToMany;startArrow=ERmandOne;fontColor=#CCCCFF;exitX=0;exitY=0.25;exitDx=0;exitDy=0;entryX=1;entryY=0.25;entryDx=0;entryDy=0;" parent="1" source="8" target="36" edge="1">
                    <mxGeometry width="100" height="100" relative="1" as="geometry">
                        <mxPoint x="790" y="240" as="sourcePoint"/>
                        <mxPoint x="930" y="240" as="targetPoint"/>
                    </mxGeometry>
                </mxCell>
                <mxCell id="39" value="Variable" style="swimlane;childLayout=stackLayout;horizontal=1;startSize=30;horizontalStack=0;rounded=1;fontSize=14;fontStyle=0;strokeWidth=2;resizeParent=0;resizeLast=1;shadow=0;dashed=0;align=center;" parent="1" vertex="1">
                    <mxGeometry x="950" y="400" width="160" height="120" as="geometry"/>
                </mxCell>
                <mxCell id="40" value="+ _id : string&#10;+ name : string&#10;+ type : string &#10;    " style="align=left;strokeColor=none;fillColor=none;spacingLeft=4;fontSize=12;verticalAlign=top;resizable=0;rotatable=0;part=1;" parent="39" vertex="1">
                    <mxGeometry y="30" width="160" height="90" as="geometry"/>
                </mxCell>
                <mxCell id="41" value="&lt;span style=&quot;padding: 0px ; margin: 0px ; color: rgb(240 , 240 , 240) ; text-align: left&quot;&gt;(..., entity, avaiable variable,&amp;nbsp;&lt;/span&gt;&lt;span style=&quot;padding: 0px ; margin: 0px ; color: rgb(240 , 240 , 240) ; text-align: left&quot;&gt;)&lt;/span&gt;" style="text;html=1;align=center;verticalAlign=middle;resizable=0;points=[];autosize=1;strokeColor=none;fillColor=none;fontColor=#CCCCFF;" parent="1" vertex="1">
                    <mxGeometry x="945" y="560" width="170" height="20" as="geometry"/>
                </mxCell>
                <mxCell id="42" value="( intent, synonym, entity_lookup, entity_regex )" style="text;html=1;align=center;verticalAlign=middle;resizable=0;points=[];autosize=1;strokeColor=none;fillColor=none;" parent="1" vertex="1">
                    <mxGeometry x="295" y="100" width="260" height="20" as="geometry"/>
                </mxCell>
            </root>
        </mxGraphModel>
    </diagram>
</mxfile>